<svg id="visual" viewBox="0 0 960 540" width="960" height="540" xmlns="http://www.w3.org/2000/svg" xmlns:xlink="http://www.w3.org/1999/xlink" version="1.1"><path d="M0 77L14.5 70.7C29 64.3 58 51.7 87.2 48.8C116.3 46 145.7 53 174.8 53.8C204 54.7 233 49.3 262 52.2C291 55 320 66 349 67.8C378 69.7 407 62.3 436.2 59.5C465.3 56.7 494.7 58.3 523.8 57.5C553 56.7 582 53.3 611 60.7C640 68 669 86 698 89.5C727 93 756 82 785.2 81C814.3 80 843.7 89 872.8 95.3C902 101.7 931 105.3 945.5 107.2L960 109L960 0L945.5 0C931 0 902 0 872.8 0C843.7 0 814.3 0 785.2 0C756 0 727 0 698 0C669 0 640 0 611 0C582 0 553 0 523.8 0C494.7 0 465.3 0 436.2 0C407 0 378 0 349 0C320 0 291 0 262 0C233 0 204 0 174.8 0C145.7 0 116.3 0 87.2 0C58 0 29 0 14.5 0L0 0Z" fill="#7bffd8"></path><path d="M0 125L14.5 117.8C29 110.7 58 96.3 87.2 98.2C116.3 100 145.7 118 174.8 117.2C204 116.3 233 96.7 262 96.7C291 96.7 320 116.3 349 124.3C378 132.3 407 128.7 436.2 126C465.3 123.3 494.7 121.7 523.8 123.5C553 125.3 582 130.7 611 136C640 141.3 669 146.7 698 144.8C727 143 756 134 785.2 134C814.3 134 843.7 143 872.8 145.7C902 148.3 931 144.7 945.5 142.8L960 141L960 107L945.5 105.2C931 103.3 902 99.7 872.8 93.3C843.7 87 814.3 78 785.2 79C756 80 727 91 698 87.5C669 84 640 66 611 58.7C582 51.3 553 54.7 523.8 55.5C494.7 56.3 465.3 54.7 436.2 57.5C407 60.3 378 67.7 349 65.8C320 64 291 53 262 50.2C233 47.3 204 52.7 174.8 51.8C145.7 51 116.3 44 87.2 46.8C58 49.7 29 62.3 14.5 68.7L0 75Z" fill="#54ffcc"></path><path d="M0 174L14.5 174C29 174 58 174 87.2 176.7C116.3 179.3 145.7 184.7 174.8 191C204 197.3 233 204.7 262 207.3C291 210 320 208 349 210.7C378 213.3 407 220.7 436.2 227C465.3 233.3 494.7 238.7 523.8 233.2C553 227.7 582 211.3 611 209.5C640 207.7 669 220.3 698 217.7C727 215 756 197 785.2 202.5C814.3 208 843.7 237 872.8 247C902 257 931 248 945.5 243.5L960 239L960 139L945.5 140.8C931 142.7 902 146.3 872.8 143.7C843.7 141 814.3 132 785.2 132C756 132 727 141 698 142.8C669 144.7 640 139.3 611 134C582 128.7 553 123.3 523.8 121.5C494.7 119.7 465.3 121.3 436.2 124C407 126.7 378 130.3 349 122.3C320 114.3 291 94.7 262 94.7C233 94.7 204 114.3 174.8 115.2C145.7 116 116.3 98 87.2 96.2C58 94.3 29 108.7 14.5 115.8L0 123Z" fill="#00ffbe"></path><path d="M0 379L14.5 388C29 397 58 415 87.2 412.3C116.3 409.7 145.7 386.3 174.8 374.7C204 363 233 363 262 365.7C291 368.3 320 373.7 349 380.8C378 388 407 397 436.2 407.8C465.3 418.7 494.7 431.3 523.8 422.3C553 413.3 582 382.7 611 377.2C640 371.7 669 391.3 698 385C727 378.7 756 346.3 785.2 340.2C814.3 334 843.7 354 872.8 356.7C902 359.3 931 344.7 945.5 337.3L960 330L960 237L945.5 241.5C931 246 902 255 872.8 245C843.7 235 814.3 206 785.2 200.5C756 195 727 213 698 215.7C669 218.3 640 205.7 611 207.5C582 209.3 553 225.7 523.8 231.2C494.7 236.7 465.3 231.3 436.2 225C407 218.7 378 211.3 349 208.7C320 206 291 208 262 205.3C233 202.7 204 195.3 174.8 189C145.7 182.7 116.3 177.3 87.2 174.7C58 172 29 172 14.5 172L0 172Z" fill="#00dda5"></path><path d="M0 541L14.5 541C29 541 58 541 87.2 541C116.3 541 145.7 541 174.8 541C204 541 233 541 262 541C291 541 320 541 349 541C378 541 407 541 436.2 541C465.3 541 494.7 541 523.8 541C553 541 582 541 611 541C640 541 669 541 698 541C727 541 756 541 785.2 541C814.3 541 843.7 541 872.8 541C902 541 931 541 945.5 541L960 541L960 328L945.5 335.3C931 342.7 902 357.3 872.8 354.7C843.7 352 814.3 332 785.2 338.2C756 344.3 727 376.7 698 383C669 389.3 640 369.7 611 375.2C582 380.7 553 411.3 523.8 420.3C494.7 429.3 465.3 416.7 436.2 405.8C407 395 378 386 349 378.8C320 371.7 291 366.3 262 363.7C233 361 204 361 174.8 372.7C145.7 384.3 116.3 407.7 87.2 410.3C58 413 29 395 14.5 386L0 377Z" fill="#00bb8c"></path></svg>